<?xml version="1.0" standalone="no"?>
<!DOCTYPE svg PUBLIC "-//W3C//DTD SVG 20010904//EN"
 "http://www.w3.org/TR/2001/REC-SVG-20010904/DTD/svg10.dtd">
<svg version="1.0" xmlns="http://www.w3.org/2000/svg"
 width="300.000000pt" height="300.000000pt" viewBox="0 0 300.000000 300.000000"
 preserveAspectRatio="xMidYMid meet">
<metadata>
Created by potrace 1.10, written by Peter Selinger 2001-2011
</metadata>
<g transform="translate(0.000000,300.000000) scale(0.100000,-0.100000)"
fill="#000000" stroke="none">
<path d="M1030 2681 c0 -6 4 -13 10 -16 6 -3 7 1 4 9 -7 18 -14 21 -14 7z"/>
<path d="M970 2650 c0 -7 3 -10 7 -7 3 4 3 10 0 14 -4 3 -7 0 -7 -7z"/>
<path d="M1060 2611 c0 -6 4 -13 10 -16 6 -3 7 1 4 9 -7 18 -14 21 -14 7z"/>
<path d="M947 2483 c-4 -71 -7 -178 -7 -239 l0 -111 70 -81 70 -81 -6 -248 -6
-248 51 -114 c28 -62 51 -120 51 -128 0 -23 -113 -447 -121 -457 -5 -5 -48 30
-99 79 -49 49 -90 82 -90 74 0 -8 75 -89 167 -179 l166 -165 44 -220 c41 -200
54 -247 67 -234 3 2 -17 110 -44 239 l-48 235 -72 68 -72 69 65 249 65 249
-54 122 -55 122 7 247 7 247 -71 83 -72 84 7 232 c4 154 3 233 -4 233 -6 0
-13 -53 -16 -127z"/>
<path d="M1000 2580 c0 -7 3 -10 7 -7 3 4 3 10 0 14 -4 3 -7 0 -7 -7z"/>
<path d="M1091 2534 c0 -11 3 -14 6 -6 3 7 2 16 -1 19 -3 4 -6 -2 -5 -13z"/>
<path d="M1020 2521 c0 -6 4 -13 10 -16 6 -3 7 1 4 9 -7 18 -14 21 -14 7z"/>
<path d="M1115 2470 c3 -5 8 -10 11 -10 3 0 2 5 -1 10 -3 6 -8 10 -11 10 -3 0
-2 -4 1 -10z"/>
<path d="M1050 2451 c0 -6 4 -13 10 -16 6 -3 7 1 4 9 -7 18 -14 21 -14 7z"/>
<path d="M1140 2411 c0 -6 4 -13 10 -16 6 -3 7 1 4 9 -7 18 -14 21 -14 7z"/>
<path d="M1080 2380 c0 -7 3 -10 7 -7 3 4 3 10 0 14 -4 3 -7 0 -7 -7z"/>
<path d="M1120 2344 c-42 -20 -59 -23 -72 -15 -29 18 -43 13 -23 -9 10 -11 24
-20 31 -20 15 0 135 50 149 62 19 17 -32 6 -85 -18z"/>
<path d="M1186 2297 c3 -10 9 -15 12 -12 3 3 0 11 -7 18 -10 9 -11 8 -5 -6z"/>
<path d="M1120 2281 c0 -6 4 -13 10 -16 6 -3 7 1 4 9 -7 18 -14 21 -14 7z"/>
<path d="M1210 2241 c0 -6 4 -13 10 -16 6 -3 7 1 4 9 -7 18 -14 21 -14 7z"/>
<path d="M1151 2204 c0 -11 3 -14 6 -6 3 7 2 16 -1 19 -3 4 -6 -2 -5 -13z"/>
<path d="M1241 2164 c0 -11 3 -14 6 -6 3 7 2 16 -1 19 -3 4 -6 -2 -5 -13z"/>
<path d="M1175 2140 c3 -5 8 -10 11 -10 3 0 2 5 -1 10 -3 6 -8 10 -11 10 -3 0
-2 -4 1 -10z"/>
<path d="M1266 2097 c3 -10 9 -15 12 -12 3 3 0 11 -7 18 -10 9 -11 8 -5 -6z"/>
<path d="M1200 2081 c0 -6 4 -13 10 -16 6 -3 7 1 4 9 -7 18 -14 21 -14 7z"/>
<path d="M1245 2033 c-48 -20 -63 -23 -78 -13 -11 6 -21 9 -24 6 -10 -9 18
-36 37 -36 20 0 150 56 150 65 0 10 -25 3 -85 -22z"/>
<path d="M1651 2046 c-29 -16 -50 -52 -51 -85 0 -24 1 -24 70 -18 39 3 72 2
75 -4 10 -14 45 -11 51 6 9 24 -5 65 -31 91 -27 27 -75 31 -114 10z"/>
<path d="M1306 2007 c3 -10 9 -15 12 -12 3 3 0 11 -7 18 -10 9 -11 8 -5 -6z"/>
<path d="M1240 1980 c0 -7 3 -10 7 -7 3 4 3 10 0 14 -4 3 -7 0 -7 -7z"/>
<path d="M1330 1940 c0 -7 3 -10 7 -7 3 4 3 10 0 14 -4 3 -7 0 -7 -7z"/>
<path d="M1266 1917 c3 -10 9 -15 12 -12 3 3 0 11 -7 18 -10 9 -11 8 -5 -6z"/>
<path d="M1638 1924 c-17 -16 -7 -61 17 -84 21 -20 29 -22 44 -13 18 12 31 8
31 -9 0 -4 -5 -8 -12 -8 -6 0 -19 -6 -27 -14 -9 -7 -35 -18 -58 -23 -39 -10
-48 -8 -120 27 -43 21 -84 47 -91 59 -24 40 -77 17 -70 -31 3 -20 10 -23 51
-26 39 -3 50 -7 56 -25 5 -12 30 -37 56 -56 46 -33 49 -34 121 -28 41 4 74 3
74 -1 0 -21 -51 -51 -113 -67 -58 -16 -71 -16 -93 -5 -46 25 -82 -22 -51 -65
13 -17 19 -18 53 -7 22 6 77 14 124 17 72 6 89 10 111 31 l26 25 47 -57 c26
-32 46 -65 44 -76 -2 -11 -41 -40 -103 -76 -127 -72 -127 -76 -55 -233 48
-106 50 -112 34 -130 -10 -11 -31 -23 -48 -27 -43 -12 -48 -42 -6 -42 17 0 41
5 52 11 14 8 23 8 31 0 6 -6 23 -11 38 -11 36 0 44 25 24 80 -8 23 -15 52 -15
64 0 19 -14 76 -35 144 -5 14 -3 22 4 22 7 0 31 9 53 20 76 37 76 37 80 -112
3 -90 13 -179 32 -275 31 -163 30 -172 -39 -198 -43 -17 -57 -37 -35 -50 5 -3
48 -3 95 1 l86 7 -6 76 c-3 42 -2 108 3 148 8 58 7 87 -7 151 l-18 78 34 130
c47 176 47 176 29 218 -9 21 -16 40 -16 42 0 1 25 19 55 39 46 31 55 42 55 66
0 36 -144 267 -176 281 -16 8 -32 5 -65 -12 -24 -12 -52 -29 -61 -37 -24 -22
-67 -9 -99 29 -22 26 -35 32 -80 36 -30 2 -57 0 -61 -4z"/>
<path d="M1296 1847 c3 -10 9 -15 12 -12 3 3 0 11 -7 18 -10 9 -11 8 -5 -6z"/>
<path d="M1321 1784 c0 -11 3 -14 6 -6 3 7 2 16 -1 19 -3 4 -6 -2 -5 -13z"/>
<path d="M1357 1754 c-54 -23 -59 -23 -82 -8 -29 19 -34 5 -7 -19 25 -22 28
-22 106 13 100 45 85 58 -17 14z"/>
<path d="M1420 1730 c0 -7 3 -10 7 -7 3 4 3 10 0 14 -4 3 -7 0 -7 -7z"/>
<path d="M1350 1711 c0 -6 4 -13 10 -16 6 -3 7 1 4 9 -7 18 -14 21 -14 7z"/>
<path d="M1280 1690 c0 -12 140 -84 148 -76 8 8 6 9 -75 50 -40 20 -73 32 -73
26z"/>
<path d="M1446 1667 c3 -10 9 -15 12 -12 3 3 0 11 -7 18 -10 9 -11 8 -5 -6z"/>
<path d="M1400 1591 c0 -6 4 -13 10 -16 6 -3 7 1 4 9 -7 18 -14 21 -14 7z"/>
<path d="M1576 1540 c34 -34 289 -83 270 -52 -4 7 -31 12 -62 12 -33 0 -86 10
-130 25 -82 28 -93 30 -78 15z"/>
<path d="M1481 1524 c-28 -13 -36 -13 -43 -2 -7 10 -8 8 -4 -4 7 -23 -38 -36
-59 -18 -24 20 -31 2 -9 -20 20 -20 20 -20 97 12 42 18 77 36 77 41 0 10 -20
7 -59 -9z"/>
<path d="M1525 1480 c3 -5 8 -10 11 -10 3 0 2 5 -1 10 -3 6 -8 10 -11 10 -3 0
-2 -4 1 -10z"/>
<path d="M1461 1454 c0 -11 3 -14 6 -6 3 7 2 16 -1 19 -3 4 -6 -2 -5 -13z"/>
<path d="M1551 1414 c0 -11 3 -14 6 -6 3 7 2 16 -1 19 -3 4 -6 -2 -5 -13z"/>
<path d="M1485 1390 c3 -5 8 -10 11 -10 3 0 2 5 -1 10 -3 6 -8 10 -11 10 -3 0
-2 -4 1 -10z"/>
<path d="M1510 1331 c0 -6 4 -13 10 -16 6 -3 7 1 4 9 -7 18 -14 21 -14 7z"/>
<path d="M1555 1279 c-64 -27 -70 -28 -87 -12 -26 24 -36 6 -10 -19 l21 -21
68 28 c69 29 90 41 82 49 -2 3 -35 -8 -74 -25z"/>
<path d="M1620 1250 c0 -7 3 -10 7 -7 3 4 3 10 0 14 -4 3 -7 0 -7 -7z"/>
<path d="M1550 1231 c0 -6 4 -13 10 -16 6 -3 7 1 4 9 -7 18 -14 21 -14 7z"/>
<path d="M1640 1190 c0 -5 5 -10 11 -10 5 0 7 5 4 10 -3 6 -8 10 -11 10 -2 0
-4 -4 -4 -10z"/>
<path d="M1580 1160 c0 -7 3 -10 7 -7 3 4 3 10 0 14 -4 3 -7 0 -7 -7z"/>
<path d="M1670 1130 c0 -7 3 -10 7 -7 3 4 3 10 0 14 -4 3 -7 0 -7 -7z"/>
<path d="M1600 1111 c0 -6 4 -13 10 -16 6 -3 7 1 4 9 -7 18 -14 21 -14 7z"/>
<path d="M1695 1070 c3 -5 8 -10 11 -10 3 0 2 5 -1 10 -3 6 -8 10 -11 10 -3 0
-2 -4 1 -10z"/>
<path d="M1630 1040 c0 -7 3 -10 7 -7 3 4 3 10 0 14 -4 3 -7 0 -7 -7z"/>
<path d="M1680 950 c-60 -26 -66 -27 -83 -13 -25 24 -35 6 -10 -19 l22 -21 75
33 c42 19 76 37 76 42 0 12 -8 10 -80 -22z"/>
<path d="M1750 931 c0 -6 4 -13 10 -16 6 -3 7 1 4 9 -7 18 -14 21 -14 7z"/>
<path d="M1690 900 c0 -7 3 -10 7 -7 3 4 3 10 0 14 -4 3 -7 0 -7 -7z"/>
<path d="M1780 860 c0 -7 3 -10 7 -7 3 4 3 10 0 14 -4 3 -7 0 -7 -7z"/>
<path d="M1715 840 c3 -5 8 -10 11 -10 3 0 2 5 -1 10 -3 6 -8 10 -11 10 -3 0
-2 -4 1 -10z"/>
<path d="M1740 780 c0 -7 3 -10 7 -7 3 4 3 10 0 14 -4 3 -7 0 -7 -7z"/>
<path d="M1830 750 c0 -7 3 -10 7 -7 3 4 3 10 0 14 -4 3 -7 0 -7 -7z"/>
<path d="M1765 720 c3 -5 8 -10 11 -10 3 0 2 5 -1 10 -3 6 -8 10 -11 10 -3 0
-2 -4 1 -10z"/>
<path d="M1790 660 c0 -7 3 -10 7 -7 3 4 3 10 0 14 -4 3 -7 0 -7 -7z"/>
<path d="M1825 624 c-48 -21 -63 -24 -78 -14 -10 6 -21 9 -24 6 -10 -9 18 -36
37 -36 20 0 150 56 150 65 0 10 -26 4 -85 -21z"/>
<path d="M1900 590 c0 -7 3 -10 7 -7 3 4 3 10 0 14 -4 3 -7 0 -7 -7z"/>
<path d="M1835 560 c3 -5 8 -10 11 -10 3 0 2 5 -1 10 -3 6 -8 10 -11 10 -3 0
-2 -4 1 -10z"/>
<path d="M1920 530 c0 -5 5 -10 11 -10 5 0 7 5 4 10 -3 6 -8 10 -11 10 -2 0
-4 -4 -4 -10z"/>
<path d="M1860 500 c0 -7 3 -10 7 -7 3 4 3 10 0 14 -4 3 -7 0 -7 -7z"/>
<path d="M1950 470 c0 -7 3 -10 7 -7 3 4 3 10 0 14 -4 3 -7 0 -7 -7z"/>
<path d="M1880 451 c0 -6 4 -13 10 -16 6 -3 7 1 4 9 -7 18 -14 21 -14 7z"/>
<path d="M1975 410 c3 -5 8 -10 11 -10 3 0 2 5 -1 10 -3 6 -8 10 -11 10 -3 0
-2 -4 1 -10z"/>
<path d="M1910 380 c0 -7 3 -10 7 -7 3 4 3 10 0 14 -4 3 -7 0 -7 -7z"/>
<path d="M2000 350 c0 -7 3 -10 7 -7 3 4 3 10 0 14 -4 3 -7 0 -7 -7z"/>
<path d="M1936 327 c3 -10 9 -15 12 -12 3 3 0 11 -7 18 -10 9 -11 8 -5 -6z"/>
<path d="M2025 290 c3 -5 8 -10 11 -10 3 0 2 5 -1 10 -3 6 -8 10 -11 10 -3 0
-2 -4 1 -10z"/>
<path d="M1960 265 c0 -8 4 -15 10 -15 5 0 7 7 4 15 -4 8 -8 15 -10 15 -2 0
-4 -7 -4 -15z"/>
</g>
</svg>
